<svg xmlns="http://www.w3.org/2000/svg" xmlns:xlink="http://www.w3.org/1999/xlink" width="161" height="42" viewBox="0 0 161 42">
  <defs>
    <clipPath id="clip-LOGO">
      <rect width="161" height="42"/>
    </clipPath>
  </defs>
  <g id="LOGO" clip-path="url(#clip-LOGO)">
    <g id="Group_2" data-name="Group 2" transform="translate(0 -1)">
      <path id="Path_5" data-name="Path 5" d="M26.058-1.534H18.173V-5.41h-.105A8.8,8.8,0,0,1,10.025-.875,8.413,8.413,0,0,1,3.841-3.1,7.984,7.984,0,0,1,1.586-9.049q0-7.858,9.309-9.071l7.331-.976q0-4.43-4.8-4.43A16.382,16.382,0,0,0,4.25-20.652v-6.276A20.645,20.645,0,0,1,9.01-28.51a25.02,25.02,0,0,1,5.5-.686q11.55,0,11.55,11.524ZM18.226-12.5v-1.82l-4.9.633q-4.061.527-4.061,3.665a3.029,3.029,0,0,0,.989,2.334,3.8,3.8,0,0,0,2.677.91A4.933,4.933,0,0,0,16.749-8.4,5.858,5.858,0,0,0,18.226-12.5ZM40.983-1.534H32.65v-27h8.333Zm5.248-.712V-9a17.741,17.741,0,0,0,4.1,1.846,13.6,13.6,0,0,0,3.863.607,8.286,8.286,0,0,0,3.494-.607A1.959,1.959,0,0,0,58.967-9a1.708,1.708,0,0,0-.58-1.318,5.393,5.393,0,0,0-1.49-.923,16.907,16.907,0,0,0-1.991-.712q-1.081-.316-2.083-.712a19.959,19.959,0,0,1-2.835-1.305,8.194,8.194,0,0,1-2.057-1.622,6.374,6.374,0,0,1-1.266-2.136A8.524,8.524,0,0,1,46.23-20.6a7.4,7.4,0,0,1,.989-3.9,8.077,8.077,0,0,1,2.637-2.677,12.049,12.049,0,0,1,3.771-1.529,19.662,19.662,0,0,1,4.417-.488,24.508,24.508,0,0,1,3.639.277,27.16,27.16,0,0,1,3.639.8v6.434a13.149,13.149,0,0,0-3.389-1.384,14.294,14.294,0,0,0-3.547-.461,7.858,7.858,0,0,0-1.543.145,5.081,5.081,0,0,0-1.279.422,2.349,2.349,0,0,0-.87.712,1.639,1.639,0,0,0-.316.989,1.827,1.827,0,0,0,.475,1.266,4.122,4.122,0,0,0,1.239.91,12.235,12.235,0,0,0,1.7.686q.936.3,1.859.62a24.171,24.171,0,0,1,3.006,1.266A9.612,9.612,0,0,1,64.966-14.9a6.317,6.317,0,0,1,1.477,2.162,7.685,7.685,0,0,1,.514,2.953,7.7,7.7,0,0,1-1.042,4.1,8.339,8.339,0,0,1-2.769,2.769,12.557,12.557,0,0,1-3.982,1.556,22.074,22.074,0,0,1-4.681.488A24.129,24.129,0,0,1,46.23-2.246Z" transform="translate(-1 43.275)" fill="#707070"/>
      <ellipse id="Ellipse_1" data-name="Ellipse 1" cx="6.5" cy="5.5" rx="6.5" ry="5.5" transform="translate(29 2)" fill="#ff0606"/>
      <path id="Path_6" data-name="Path 6" d="M2.426-1.01V-18.922h8.369v1.137H3.662V-10.6h6.62v1.124H3.662v7.345h7.545V-1.01Zm22.5,0L20.8-7.842a11.406,11.406,0,0,1-.662-1.249h-.062a10.949,10.949,0,0,1-.712,1.249l-4.2,6.833H13.68l5.658-9.031-5.321-8.881H15.5l4.01,6.733q.312.525.65,1.2h.05l.662-1.2,3.985-6.733H26.3l-5.371,8.856,5.5,9.056Zm5.933-7.182V-1.01H29.619V-18.922H33.94a6.219,6.219,0,0,1,4.222,1.28A4.707,4.707,0,0,1,39.624-13.9a5.511,5.511,0,0,1-1.63,4.1,6.228,6.228,0,0,1-4.565,1.605Zm0-9.593v8.456H33.4a5.277,5.277,0,0,0,3.685-1.155,4.206,4.206,0,0,0,1.262-3.266q0-4.035-4.634-4.035ZM52.7-1.01,50.316-6.256a5.7,5.7,0,0,0-1.474-2.18,2.983,2.983,0,0,0-1.849-.556H44.77V-1.01H43.533V-18.922H48.5a5.211,5.211,0,0,1,3.729,1.28,4.432,4.432,0,0,1,1.355,3.379,4.8,4.8,0,0,1-1.112,3.235,5.2,5.2,0,0,1-3.11,1.674v.05A4.839,4.839,0,0,1,51.44-6.718L54.1-1.01ZM44.77-17.785v7.669h3.085a4.712,4.712,0,0,0,3.254-1.074,3.747,3.747,0,0,0,1.205-2.948,3.4,3.4,0,0,0-1.087-2.679,4.526,4.526,0,0,0-3.11-.968ZM57.736-1.01V-18.922H66.1v1.137H58.972V-10.6h6.62v1.124h-6.62v7.345h7.545V-1.01Zm12.229-.637V-3.058a7.191,7.191,0,0,0,3.9,1.224A5.016,5.016,0,0,0,77.047-2.7a2.934,2.934,0,0,0,1.087-2.429A3.169,3.169,0,0,0,77.4-7.324a14.413,14.413,0,0,0-3.166-2.23,11.26,11.26,0,0,1-3.447-2.654,4.289,4.289,0,0,1-.724-2.467A4.172,4.172,0,0,1,71.538-17.9a5.667,5.667,0,0,1,3.935-1.324,9.989,9.989,0,0,1,3.2.537v1.3a8.057,8.057,0,0,0-3.36-.712,4.268,4.268,0,0,0-2.892.924,2.97,2.97,0,0,0-1.068,2.348,3.145,3.145,0,0,0,.731,2.186,14.426,14.426,0,0,0,3.154,2.211A11.269,11.269,0,0,1,78.577-7.9a4.118,4.118,0,0,1,.831,2.542A4.331,4.331,0,0,1,77.977-2,5.8,5.8,0,0,1,73.936-.7a9.324,9.324,0,0,1-2.13-.287A6.9,6.9,0,0,1,69.964-1.647Zm12.716,0V-3.058a7.191,7.191,0,0,0,3.9,1.224A5.016,5.016,0,0,0,89.762-2.7a2.934,2.934,0,0,0,1.087-2.429,3.169,3.169,0,0,0-.731-2.192,14.413,14.413,0,0,0-3.166-2.23A11.26,11.26,0,0,1,83.5-12.208a4.289,4.289,0,0,1-.724-2.467A4.172,4.172,0,0,1,84.254-17.9a5.667,5.667,0,0,1,3.935-1.324,9.989,9.989,0,0,1,3.2.537v1.3a8.057,8.057,0,0,0-3.36-.712,4.268,4.268,0,0,0-2.892.924,2.97,2.97,0,0,0-1.068,2.348,3.145,3.145,0,0,0,.731,2.186,14.426,14.426,0,0,0,3.154,2.211A11.269,11.269,0,0,1,91.292-7.9a4.118,4.118,0,0,1,.831,2.542A4.331,4.331,0,0,1,90.693-2,5.8,5.8,0,0,1,86.652-.7a9.324,9.324,0,0,1-2.13-.287A6.9,6.9,0,0,1,82.68-1.647Z" transform="translate(67.173 42.751)" fill="#707070"/>
    </g>
  </g>
</svg>
